<?xml version="1.0" standalone="no"?>
<!DOCTYPE svg PUBLIC "-//W3C//DTD SVG 20010904//EN"
 "http://www.w3.org/TR/2001/REC-SVG-20010904/DTD/svg10.dtd">
<svg version="1.0" xmlns="http://www.w3.org/2000/svg"
 width="512.000000pt" height="512.000000pt" viewBox="0 0 512.000000 512.000000"
 preserveAspectRatio="xMidYMid meet">
<metadata>
Created by potrace 1.14, written by Peter Selinger 2001-2017
</metadata>
<g transform="translate(0.000000,512.000000) scale(0.100000,-0.100000)"
fill="#000000" stroke="none">
<path d="M2946 4822 c-4 -3 -17 -7 -29 -9 -74 -10 -273 -162 -292 -224 -4 -10
-10 -19 -14 -19 -5 0 -22 -31 -40 -70 -46 -99 -79 -218 -97 -350 -7 -50 -10
-320 -4 -320 3 0 5 -37 4 -82 -1 -46 3 -91 7 -100 6 -10 5 -19 -1 -23 -6 -4
-6 -15 0 -31 6 -14 8 -29 5 -34 -3 -5 1 -11 7 -13 10 -4 10 -6 0 -6 -7 -1 -10
-6 -6 -12 4 -7 8 -26 9 -43 2 -36 -6 -42 -213 -182 -118 -80 -194 -149 -317
-286 -72 -80 -124 -151 -114 -155 2 -1 -7 -13 -20 -27 -14 -14 -20 -26 -15
-26 5 0 2 -6 -6 -13 -18 -14 -82 -145 -79 -160 0 -1 -9 -27 -21 -57 -12 -30
-21 -56 -21 -57 1 -2 1 -4 0 -5 -26 -86 -28 -287 -4 -398 5 -25 10 -48 20
-103 13 -65 96 -244 125 -267 3 -3 17 -21 30 -40 14 -19 34 -45 45 -57 11 -12
32 -35 48 -52 15 -17 27 -28 27 -24 0 5 5 0 11 -9 5 -10 17 -18 24 -18 8 0 15
-6 15 -12 0 -7 18 -22 40 -32 22 -11 40 -23 40 -28 0 -5 4 -6 10 -3 6 3 10 1
10 -5 0 -6 4 -9 9 -6 5 4 11 3 13 -1 9 -21 235 -113 275 -113 11 0 23 -3 27
-7 4 -4 19 -9 34 -10 76 -9 97 -11 102 -13 3 -2 45 -3 94 -4 89 -1 90 -1 97
-28 9 -34 20 -133 19 -171 0 -16 3 -26 7 -24 11 7 9 -218 -1 -263 -13 -53 -55
-131 -87 -160 -48 -42 -58 -50 -64 -50 -3 0 -18 -6 -33 -14 -15 -8 -50 -17
-77 -21 -28 -4 -57 -9 -66 -10 -12 -3 -80 8 -124 19 -30 8 -123 61 -133 76
-10 17 -8 18 16 11 15 -5 34 -7 42 -5 64 11 86 16 96 24 6 6 14 7 17 3 4 -3 7
-1 7 5 0 7 10 12 22 12 12 0 18 3 15 6 -4 4 9 19 29 35 19 15 35 30 34 33 0 4
6 19 14 35 9 16 12 31 9 35 -4 3 -2 6 3 6 21 0 21 97 1 186 -13 52 -84 136
-147 173 -47 27 -126 48 -165 44 -42 -4 -78 -10 -82 -14 -2 -1 -6 -2 -10 -4
-8 -2 -78 -36 -120 -58 -12 -6 -27 -22 -34 -34 -7 -13 -16 -23 -21 -23 -4 0
-8 -6 -8 -14 0 -8 -4 -16 -10 -18 -5 -2 -20 -28 -34 -59 -20 -46 -24 -70 -23
-142 1 -48 5 -87 9 -87 4 0 8 -8 8 -17 0 -26 22 -84 43 -116 9 -15 15 -27 12
-27 -9 0 130 -136 157 -153 83 -52 174 -91 233 -100 11 -1 25 -5 30 -8 14 -8
195 -4 222 5 12 4 32 9 44 11 12 3 26 10 31 17 4 7 8 10 8 5 0 -9 52 18 100
53 38 27 113 100 103 100 -4 0 5 12 18 27 26 28 54 82 51 96 -1 4 3 7 9 7 5 0
7 4 4 10 -3 5 -2 18 4 28 13 25 24 96 24 172 1 79 -13 234 -28 310 -16 85 -14
100 18 106 4 1 9 3 12 4 3 1 10 4 15 5 6 1 11 3 13 5 2 2 19 6 52 14 11 2 22
5 25 6 3 1 8 2 13 1 4 0 7 3 7 7 0 4 17 14 38 21 20 8 39 17 42 20 3 4 27 20
55 36 98 57 228 216 251 310 1 6 9 29 18 53 8 23 15 44 16 47 0 3 0 6 1 8 3
11 10 47 13 72 3 17 5 30 6 30 1 0 3 25 4 55 1 30 5 60 9 66 3 6 3 14 -1 18
-3 4 -7 21 -8 39 -3 58 -21 130 -45 178 -10 20 -15 39 -12 43 4 3 1 6 -6 6 -7
0 -9 5 -6 10 3 6 2 10 -2 10 -5 0 -17 17 -28 38 -22 42 -161 182 -181 182 -7
0 -17 8 -23 18 -5 9 -13 16 -18 16 -4 -1 -26 5 -48 14 -22 9 -43 16 -47 14 -5
-1 -8 2 -8 6 0 5 -6 9 -12 9 -7 0 -33 4 -58 8 -51 9 -230 13 -230 5 0 -12 -50
-9 -51 3 -1 14 -5 47 -12 102 -12 89 -18 131 -22 142 -5 14 10 27 105 95 41
29 88 65 103 78 16 14 30 24 32 23 7 -4 115 107 115 118 0 6 3 8 8 6 6 -3 51
37 52 48 1 5 36 47 72 86 15 16 25 29 23 29 -4 0 46 72 75 107 6 7 10 15 10
19 0 3 8 18 19 32 10 15 26 48 36 75 10 26 22 47 27 47 5 0 6 5 3 10 -4 6 -1
17 5 25 7 8 10 15 7 15 -4 0 0 18 8 40 8 22 14 42 15 45 0 3 0 6 1 8 0 1 2 9
4 17 2 8 6 29 10 45 10 44 14 335 4 335 -4 0 -6 8 -4 19 2 10 -1 36 -6 57 -5
22 -12 52 -15 68 -3 17 -21 63 -40 103 -18 40 -33 76 -33 80 0 3 -3 9 -8 12
-4 3 -21 24 -38 46 -26 36 -52 63 -99 103 -9 6 -20 12 -26 12 -5 0 -10 5 -10
10 0 6 -3 9 -7 8 -5 0 -25 6 -46 16 -21 9 -42 14 -47 11 -6 -4 -10 -2 -10 3 0
10 -135 14 -144 4z m266 -406 c44 -29 60 -105 44 -206 -4 -25 -12 -49 -17 -54
-5 -6 -9 -18 -9 -28 0 -10 -7 -21 -15 -24 -8 -4 -12 -10 -10 -15 3 -4 -2 -16
-12 -26 -10 -10 -38 -43 -63 -73 -25 -30 -64 -73 -86 -95 -91 -87 -164 -155
-172 -157 -4 -1 -20 -14 -37 -29 -45 -41 -71 -62 -95 -79 -12 -8 -38 -27 -58
-42 -40 -32 -46 -34 -38 -13 3 8 2 15 -2 15 -9 0 -11 41 -12 185 0 120 3 156
14 173 4 7 5 16 2 19 -3 4 1 17 9 30 9 13 13 23 10 23 -9 0 55 114 69 122 6 4
7 8 2 8 -21 0 63 94 149 165 33 28 62 52 65 55 14 14 60 39 60 33 0 -5 4 -3 8
3 22 34 148 40 194 10z m-615 -1558 c1 -19 13 -126 19 -164 5 -31 3 -34 -57
-66 -139 -73 -311 -281 -311 -373 0 -14 -5 -25 -9 -25 -5 0 -7 -11 -5 -25 3
-14 1 -25 -2 -25 -6 0 -6 -51 1 -142 1 -10 5 -18 10 -18 4 0 6 -4 3 -9 -16
-25 120 -221 154 -221 5 0 10 -5 10 -11 0 -5 5 -7 10 -4 6 3 10 2 10 -3 0 -10
73 -45 95 -45 8 0 15 -3 15 -6 0 -9 78 -16 134 -12 11 0 16 4 12 9 -4 4 -8 5
-9 3 -1 -2 -19 4 -39 12 -20 8 -39 13 -42 9 -3 -3 -6 0 -6 6 0 7 -6 12 -13 12
-22 0 -83 65 -107 114 -12 26 -24 69 -25 94 -2 53 13 122 27 122 5 0 7 4 4 8
-7 11 43 63 89 93 52 33 117 56 103 37 -1 -2 4 -13 11 -25 8 -16 8 -23 1 -23
-6 0 -8 -5 -4 -12 7 -11 16 -83 18 -145 1 -18 3 -33 6 -33 3 0 7 -12 7 -27 1
-16 3 -54 5 -85 2 -32 6 -58 9 -58 3 0 5 -18 4 -40 -1 -23 1 -43 4 -45 3 -1 6
-26 6 -54 0 -28 3 -51 7 -51 4 0 5 -10 3 -22 -3 -12 0 -27 6 -34 7 -8 7 -14
-1 -19 -6 -3 -8 -11 -5 -16 5 -8 -7 -13 -26 -11 -9 1 -162 14 -181 15 -10 1
-18 5 -18 10 0 4 -4 6 -8 3 -10 -6 -126 34 -182 62 -41 20 -106 66 -136 97
-60 60 -139 190 -150 245 -2 8 -7 33 -11 55 -4 22 -8 51 -8 65 0 14 -4 28 -10
32 -7 5 -7 8 0 8 6 0 10 25 9 55 0 30 2 55 5 55 3 0 7 10 8 23 2 18 8 51 12
65 1 1 1 4 1 7 -1 13 83 165 91 165 5 0 9 7 9 15 0 8 36 51 80 96 44 44 80 77
80 73 0 -4 8 1 19 12 26 27 49 45 106 84 28 18 53 38 57 44 5 7 8 7 8 1 0 -6
4 -5 8 1 7 12 72 54 83 54 3 0 6 -6 6 -12z m343 -336 c0 -4 -20 -8 -45 -10
-25 -1 -45 1 -45 6 0 4 20 8 45 9 25 1 45 -1 45 -5z m30 -2 c0 -5 -4 -10 -10
-10 -5 0 -10 5 -10 10 0 6 5 10 10 10 6 0 10 -4 10 -10z m-185 -9 c-6 -4 -23
-11 -40 -14 l-30 -6 30 14 c35 16 54 19 40 6z m-75 -21 c0 -5 -8 -10 -17 -10
-15 0 -16 2 -3 10 19 12 20 12 20 0z m190 -233 c0 -5 6 -7 13 -4 6 2 24 -2 39
-10 15 -7 30 -13 34 -12 10 3 104 -62 104 -72 0 -6 3 -8 8 -6 4 2 17 -7 29
-20 12 -13 19 -23 16 -23 -3 0 1 -8 10 -18 20 -21 48 -98 40 -106 -4 -3 -2 -6
3 -6 5 0 11 -10 11 -22 1 -13 5 -33 8 -45 3 -15 1 -23 -7 -23 -10 0 -10 -2 1
-9 10 -6 10 -10 1 -16 -9 -6 -9 -10 1 -16 9 -6 10 -12 4 -16 -5 -5 -10 -19
-10 -33 0 -14 -3 -29 -7 -35 -3 -5 -7 -14 -8 -20 -7 -31 -34 -76 -67 -111 -31
-32 -114 -87 -130 -87 -7 0 -13 -5 -13 -10 0 -6 -3 -7 -7 -4 -3 4 -12 2 -20
-5 -8 -7 -17 -8 -23 -2 -9 9 -21 94 -24 166 0 21 -3 38 -6 38 -3 0 -6 15 -6
33 -2 47 -11 105 -19 117 -3 5 -2 10 4 10 7 0 7 8 1 24 -5 13 -12 50 -16 83
-3 32 -8 67 -10 78 -2 11 -6 47 -9 80 -3 33 -8 68 -11 77 -3 10 -3 21 -1 25 7
11 67 10 67 0z"/>
<path d="M2331 4576 c-14 -16 -9 -58 7 -64 15 -5 16 -34 2 -48 -6 -6 -5 -19 4
-36 8 -15 11 -29 8 -33 -4 -3 1 -3 10 0 10 4 17 10 16 13 -1 4 1 17 6 29 4 12
2 31 -3 42 -8 13 -8 22 -1 26 6 4 8 11 4 16 -3 5 0 8 8 7 16 -4 18 33 1 50
-15 16 -48 15 -62 -2z"/>
<path d="M2209 4460 c-7 -5 -17 -6 -21 -4 -5 3 -7 0 -6 -7 2 -7 -3 -13 -11
-14 -15 0 -23 -24 -22 -63 1 -39 13 -47 28 -18 7 14 17 26 21 27 4 0 17 2 30
5 12 2 22 -1 22 -7 0 -5 4 -8 8 -5 11 7 30 -32 30 -63 1 -13 -6 -30 -14 -38
-12 -13 -20 -13 -45 -2 -34 14 -49 3 -49 -37 0 -34 75 -49 93 -19 4 8 15 22
24 31 24 24 24 144 0 168 -9 10 -17 21 -17 26 0 13 -56 29 -71 20z"/>
<path d="M1937 4400 c-20 -4 -39 -9 -42 -12 -3 -3 -6 -36 -8 -74 -2 -64 -13
-97 -28 -88 -4 2 -12 -2 -18 -10 -25 -30 9 -72 44 -54 29 16 33 25 30 78 -2
36 1 50 12 54 8 4 18 4 22 1 5 -2 22 0 39 4 43 13 69 -6 53 -38 -7 -12 -15
-20 -19 -17 -13 8 -38 -19 -39 -42 -3 -43 63 -50 82 -9 8 17 11 133 6 204 -1
12 -48 12 -69 0 -6 -5 -12 -4 -12 2 0 6 -3 10 -7 10 -5 -1 -25 -5 -46 -9z"/>
<path d="M1710 4301 c0 -4 -15 -12 -34 -19 -27 -10 -36 -21 -48 -59 -14 -44
-14 -49 6 -86 22 -40 69 -77 83 -64 4 4 -5 18 -19 30 -29 25 -63 97 -47 97 6
0 9 6 6 13 -5 15 38 57 61 58 9 1 27 1 39 2 12 0 20 3 18 7 -7 11 -65 30 -65
21z"/>
<path d="M1726 4221 c-10 -11 -12 -21 -5 -33 11 -20 56 -21 63 -1 14 36 -32
63 -58 34z"/>
<path d="M2265 4146 c-18 -27 -13 -46 15 -64 16 -10 23 -8 44 11 23 22 23 24
8 43 -27 33 -50 37 -67 10z"/>
<path d="M2185 4150 c-4 -6 -1 -10 5 -10 6 0 9 -4 6 -8 -3 -5 1 -9 9 -9 8 0
15 6 15 13 0 15 -27 26 -35 14z"/>
<path d="M1990 4109 c0 -5 -10 -7 -22 -5 -13 1 -37 -5 -55 -15 -18 -10 -33
-16 -33 -14 0 7 -70 -30 -90 -47 -35 -29 -105 -152 -118 -204 -3 -16 -5 -68
-4 -116 2 -113 35 -191 113 -266 30 -29 57 -52 62 -52 4 0 24 -11 45 -24 62
-41 145 -56 258 -48 11 1 21 8 21 15 0 8 -23 12 -76 13 -89 2 -121 6 -121 15
0 4 -10 9 -22 13 -27 7 -118 87 -118 104 0 7 -4 12 -10 12 -5 0 -10 9 -10 19
0 11 -5 23 -11 26 -6 4 -8 13 -5 20 3 8 0 16 -7 19 -7 2 -4 5 6 5 10 1 17 -4
15 -11 -2 -6 2 -19 9 -27 48 -56 62 -70 92 -91 32 -22 34 -23 47 -5 14 19 3
45 -18 45 -5 0 -27 14 -48 31 -53 43 -97 131 -94 189 3 52 7 77 17 86 4 4 7
15 7 25 0 10 8 23 18 28 9 6 13 11 7 11 -18 0 88 92 124 108 40 16 101 23 101
11 0 -4 8 -5 18 -3 44 12 127 -46 162 -114 27 -51 32 -182 7 -182 -4 0 -6 -4
-3 -8 3 -5 -6 -20 -20 -35 -14 -15 -21 -27 -17 -27 4 0 -11 -12 -34 -26 -55
-32 -126 -41 -175 -20 -40 17 -90 65 -82 78 3 4 1 8 -4 8 -14 0 -7 62 12 101
17 35 40 53 82 62 43 9 46 -10 5 -26 -22 -9 -46 -27 -52 -39 -14 -26 -19 -88
-7 -88 4 0 8 -6 8 -12 0 -7 16 -23 35 -35 115 -75 248 54 182 176 -54 99 -165
123 -254 55 -30 -23 -58 -81 -57 -116 1 -10 -2 -18 -7 -18 -5 0 -4 -12 1 -26
6 -14 8 -30 4 -35 -3 -5 0 -9 5 -9 6 0 11 -5 11 -12 0 -32 87 -107 127 -109 5
0 13 -5 19 -10 6 -5 14 -6 17 -2 4 3 24 7 44 8 61 3 60 3 130 59 23 18 39 36
36 40 -4 3 -1 6 5 6 11 0 45 80 45 106 0 8 4 14 9 14 5 0 7 4 3 9 -3 5 0 13 6
17 7 4 9 3 5 -4 -3 -6 -2 -13 4 -17 9 -6 14 7 11 28 0 4 4 7 10 7 5 0 8 4 5 9
-3 5 -8 27 -10 48 -4 49 -26 112 -46 136 -64 77 -135 127 -193 133 -83 10
-127 10 -127 3z"/>
<path d="M1556 4081 c-23 -9 -31 -48 -14 -64 23 -22 68 -5 68 25 0 17 -22 49
-32 47 -2 0 -12 -4 -22 -8z"/>
<path d="M3579 4083 c-1 -5 -2 -40 -3 -80 -1 -48 2 -70 9 -65 6 4 6 1 -1 -9
-6 -8 -10 -27 -10 -44 1 -16 -5 -36 -12 -43 -14 -16 -7 -32 14 -32 12 0 19 13
12 23 -1 1 4 11 10 23 8 15 8 24 0 32 -7 7 -7 16 0 28 6 11 7 27 1 41 -5 15
-5 23 2 23 6 0 7 5 4 10 -3 6 -1 11 4 11 41 5 58 4 69 -4 6 -5 12 -6 12 -3 0
4 9 -2 20 -12 13 -12 18 -25 14 -35 -3 -10 -2 -17 4 -17 15 0 21 36 12 76 -5
19 -10 37 -12 38 -1 1 -16 12 -32 24 -28 21 -114 32 -117 15z"/>
<path d="M1375 4010 c-30 -11 -47 -36 -51 -72 -5 -40 18 -76 59 -93 26 -11 36
-10 63 2 42 20 58 52 50 96 -11 58 -65 88 -121 67z"/>
<path d="M1627 3968 c-2 -7 3 -21 12 -31 15 -18 14 -20 -8 -38 -21 -17 -46
-24 -77 -20 -7 1 -14 -5 -18 -14 -3 -8 -1 -15 5 -15 6 0 8 -4 5 -9 -10 -16 5
-40 24 -38 14 1 16 4 7 19 -13 20 -9 26 21 31 55 8 99 80 70 114 -13 17 -35
17 -41 1z"/>
<path d="M2020 3959 c0 -7 -3 -9 -6 -6 -4 3 -16 1 -28 -5 -11 -7 -23 -13 -26
-13 -28 -3 -95 -75 -70 -75 5 0 10 8 10 18 0 14 2 15 10 2 8 -12 10 -12 15 2
8 21 100 49 145 44 36 -3 112 -35 118 -48 2 -5 9 -8 15 -8 15 0 -33 49 -65 66
-15 8 -43 16 -63 19 -19 2 -40 7 -45 10 -6 3 -10 1 -10 -6z"/>
<path d="M3646 3955 c-2 -6 2 -19 9 -28 12 -16 14 -16 28 -2 9 9 14 22 11 30
-6 16 -41 16 -48 0z"/>
<path d="M3710 3872 c-28 -9 -59 -52 -66 -88 -14 -73 52 -147 123 -138 41 5
71 23 79 46 3 10 9 18 14 18 4 0 7 23 6 50 -1 41 -7 56 -32 80 -29 30 -88 45
-124 32z"/>
<path d="M1613 3812 c-7 -4 -9 -13 -5 -19 5 -8 13 -9 22 -3 10 6 11 13 5 19
-6 6 -16 7 -22 3z"/>
<path d="M1461 3779 c-50 -11 -84 -49 -84 -97 0 -56 50 -112 100 -112 7 0 13
-4 13 -10 0 -5 7 -10 15 -10 18 0 83 -39 118 -73 18 -16 21 -24 12 -24 -8 0
-15 4 -15 9 0 4 -3 7 -7 7 -5 -1 -11 0 -15 1 -5 1 -12 4 -18 5 -5 1 -11 4 -12
5 -8 8 -65 5 -77 -4 -12 -9 -13 -8 -6 3 5 10 4 12 -3 7 -7 -4 -21 -9 -31 -11
-28 -5 -70 -35 -82 -56 -13 -25 2 -24 29 2 12 11 26 17 31 14 5 -3 12 -2 14 2
7 11 127 16 127 6 0 -5 12 -10 26 -11 14 -1 31 -5 37 -9 7 -4 23 -9 36 -11 13
-2 29 -8 36 -15 29 -28 54 -45 108 -76 31 -18 57 -29 57 -26 0 4 7 1 17 -6 13
-11 17 -11 20 -1 3 6 9 10 14 6 5 -3 9 -3 9 0 0 3 -29 19 -64 36 -35 17 -88
53 -118 80 -52 46 -112 140 -120 185 -1 11 -6 23 -10 26 -5 3 -9 17 -10 32 -1
15 -6 27 -10 27 -4 0 -8 7 -8 15 0 8 -5 15 -12 15 -6 0 -9 3 -5 6 6 7 -19 33
-53 55 -18 11 -35 13 -59 8z"/>
<path d="M3924 3782 c-22 -15 -22 -40 1 -66 15 -18 23 -37 20 -54 -1 -15 -3
-33 -4 -40 -2 -19 -61 -73 -72 -67 -5 4 -9 1 -9 -4 0 -6 -5 -10 -11 -8 -6 1
-18 -8 -26 -20 -14 -21 -14 -23 8 -32 16 -5 31 -4 44 5 26 17 91 103 88 115
-2 5 1 9 6 9 22 0 35 120 16 147 -13 18 -44 26 -61 15z"/>
<path d="M1160 3758 c0 -3 -9 -10 -20 -13 -11 -4 -18 -10 -15 -15 3 -5 1 -11
-4 -15 -19 -11 -5 -75 22 -102 46 -47 139 -24 152 37 9 39 -19 95 -53 109 -29
12 -82 11 -82 -1z"/>
<path d="M1606 3752 c-3 -5 1 -9 9 -9 8 0 15 4 15 9 0 4 -4 8 -9 8 -6 0 -12
-4 -15 -8z"/>
<path d="M2373 3693 c-18 -6 -16 -28 3 -47 21 -21 31 -20 45 5 16 30 -12 54
-48 42z"/>
<path d="M3560 3634 c0 -8 -5 -13 -12 -11 -15 3 -17 -35 -3 -45 6 -5 4 -8 -4
-8 -8 0 -3 -8 12 -20 14 -11 28 -20 31 -20 4 0 16 9 28 20 12 11 28 20 35 20
7 0 13 4 13 8 0 5 20 8 45 8 25 -1 45 3 45 7 0 5 5 5 10 2 6 -3 10 -1 10 4 0
6 -8 11 -17 12 -10 0 -25 2 -33 4 -8 2 -27 5 -42 8 -15 3 -33 9 -40 14 -22 14
-78 12 -78 -3z"/>
<path d="M3854 3632 c-6 -4 -14 -16 -18 -27 -4 -11 -4 -16 0 -13 4 4 15 3 24
-2 14 -7 20 -5 24 7 8 20 -14 45 -30 35z"/>
<path d="M4014 3608 c-8 -12 5 -28 22 -28 8 0 14 8 14 18 0 19 -26 26 -36 10z"/>
<path d="M2321 3587 c-6 -17 -3 -24 13 -33 25 -13 46 -1 41 24 -2 9 -4 19 -4
22 -3 17 -43 6 -50 -13z"/>
<path d="M3770 3560 c0 -13 5 -18 15 -14 8 4 15 10 15 14 0 4 -7 10 -15 14
-10 4 -15 -1 -15 -14z"/>
<path d="M3436 3553 c-9 -24 24 -50 36 -29 10 18 0 46 -17 46 -7 0 -16 -8 -19
-17z"/>
<path d="M1321 3534 c-9 -20 -7 -25 10 -35 29 -15 56 10 41 37 -14 26 -38 25
-51 -2z"/>
<path d="M3976 3547 c-15 -11 -16 -15 -3 -25 11 -10 17 -9 27 3 18 22 0 39
-24 22z"/>
<path d="M1088 3529 c-10 -5 -18 -7 -18 -3 0 4 -9 -1 -20 -11 -11 -10 -20 -15
-20 -11 0 4 -12 -7 -27 -26 -15 -18 -30 -35 -34 -38 -6 -5 -19 -34 -27 -60 -2
-8 -5 -44 -6 -80 -2 -101 36 -173 135 -255 13 -10 25 -18 27 -17 1 1 15 -4 31
-12 16 -9 31 -13 34 -10 3 3 12 2 19 -2 21 -13 37 -15 143 -16 110 0 158 6
163 22 2 5 8 8 13 4 5 -3 9 -1 9 5 0 6 -12 8 -28 5 -34 -7 -77 24 -84 61 -3
14 -1 25 3 25 5 0 6 6 4 13 -9 22 42 68 96 88 63 22 62 22 53 7 -5 -8 -3 -8 7
-2 14 9 149 13 149 4 0 -3 12 -5 28 -6 45 -1 77 -8 84 -19 5 -6 8 -5 8 3 0 8
5 10 13 5 6 -4 17 -8 22 -9 6 -1 22 -5 38 -9 21 -6 27 -4 27 8 0 13 -21 26
-50 32 -25 5 -74 27 -185 81 -71 36 -143 68 -160 71 -59 12 -124 5 -164 -16
-23 -13 -71 -73 -71 -89 0 -7 -3 -12 -7 -12 -8 0 -13 -29 -15 -90 -2 -39 21
-120 34 -120 4 0 8 -5 8 -11 0 -11 -103 -10 -135 2 -11 4 -28 10 -38 13 -9 3
-21 7 -25 8 -9 3 -49 37 -73 62 -25 26 -51 84 -44 96 3 6 1 10 -5 10 -7 0 -10
21 -9 60 1 33 7 60 12 60 6 0 7 3 4 7 -4 3 0 17 8 30 9 13 12 23 9 23 -4 0 12
15 35 33 71 57 150 33 167 -50 4 -22 -32 -14 -56 13 -29 30 -76 29 -106 -3
-26 -26 -28 -49 -9 -99 12 -31 24 -45 46 -53 16 -5 29 -7 29 -4 0 3 7 0 16 -8
13 -10 17 -10 24 1 4 7 15 10 25 7 9 -4 14 -3 11 1 -2 4 8 16 23 26 48 33 60
68 52 157 -1 21 -70 101 -81 94 -5 -3 -11 -1 -14 3 -7 12 -78 13 -98 1z m346
-223 c-5 -14 -44 -30 -44 -17 0 3 10 11 23 17 12 7 23 12 24 13 1 0 0 -5 -3
-13z"/>
<path d="M2249 3513 c-21 -25 -88 -54 -132 -57 -39 -3 -42 -5 -45 -36 l-3 -33
59 5 c71 7 127 31 164 71 23 25 28 56 9 58 -3 0 -14 2 -23 4 -9 2 -23 -4 -29
-12z"/>
<path d="M3654 3508 c-31 -17 -64 -50 -58 -59 3 -5 -1 -9 -8 -9 -9 0 -9 -3 2
-10 10 -7 11 -10 2 -10 -21 0 -3 -53 30 -83 50 -47 124 -30 153 36 16 38 9 69
-26 108 -16 18 -29 30 -29 26 0 -4 -10 -3 -23 2 -14 6 -31 5 -43 -1z"/>
<path d="M4035 3508 c-11 -7 -26 -18 -33 -25 -7 -7 -17 -13 -22 -13 -24 0 24
-69 61 -89 15 -7 31 -23 36 -34 6 -14 12 -17 17 -9 4 6 -12 30 -39 55 -44 44
-53 77 -19 77 8 0 14 5 14 10 0 18 39 11 49 -9 9 -15 7 -20 -9 -24 -24 -6 -26
-22 -5 -31 26 -10 41 3 43 38 4 51 -47 81 -93 54z"/>
<path d="M3486 3495 c-6 -17 2 -45 14 -45 22 0 40 14 40 30 0 28 -44 41 -54
15z"/>
<path d="M2010 3450 c-21 -13 -20 -38 1 -43 26 -7 41 14 25 35 -8 11 -17 14
-26 8z"/>
<path d="M3400 3420 c0 -6 -4 -9 -9 -6 -15 10 -70 -42 -66 -62 2 -9 4 -22 4
-28 2 -22 43 -54 70 -54 31 0 77 37 75 60 0 8 -2 24 -3 35 -1 21 -71 74 -71
55z"/>
<path d="M3851 3406 c-10 -12 -8 -19 9 -36 24 -24 38 -18 42 20 2 19 -2 26
-18 28 -11 2 -26 -4 -33 -12z"/>
<path d="M3931 3341 c-24 -23 -29 -36 -26 -60 4 -32 28 -65 39 -54 3 4 6 1 6
-5 0 -6 11 -9 26 -6 28 5 54 26 54 42 0 6 6 13 13 15 9 4 8 8 -3 16 -8 6 -11
11 -7 11 16 0 -15 40 -43 55 -28 15 -30 14 -59 -14z"/>
<path d="M4154 3338 c-3 -4 -7 -25 -10 -45 -7 -59 -9 -67 -17 -80 -5 -7 -5
-13 0 -13 4 0 1 -5 -7 -10 -13 -9 -13 -10 0 -10 8 0 28 16 43 36 16 19 31 33
34 30 3 -2 15 6 28 20 25 27 23 59 -5 74 -19 10 -59 9 -66 -2z"/>
<path d="M3506 3315 c-13 -10 -15 -15 -6 -15 9 0 6 -8 -8 -23 -12 -13 -22 -28
-22 -33 0 -18 33 -11 38 8 6 23 22 24 22 0 0 -11 8 -18 20 -19 11 -1 20 3 20
8 0 6 4 8 9 5 4 -3 8 9 8 27 -1 48 -44 70 -81 42z m44 -19 c0 -3 -4 -8 -10
-11 -5 -3 -10 -1 -10 4 0 6 5 11 10 11 6 0 10 -2 10 -4z"/>
<path d="M4100 3320 c0 -5 5 -10 11 -10 5 0 7 5 4 10 -3 6 -8 10 -11 10 -2 0
-4 -4 -4 -10z"/>
<path d="M3800 3304 c-14 -8 -22 -14 -17 -14 4 0 -11 -18 -33 -39 -43 -41 -80
-59 -117 -56 -13 1 -23 -2 -23 -7 0 -5 -9 -4 -19 2 -14 7 -21 6 -24 -3 -3 -6
-6 -7 -6 -2 -1 6 -26 9 -63 7 -35 -1 -71 -3 -80 -3 -10 0 -18 -4 -18 -9 0 -5
-8 -7 -18 -5 -9 1 -46 -11 -82 -28 -36 -16 -68 -29 -72 -29 -5 1 -8 -2 -8 -8
0 -5 -6 -10 -14 -10 -8 0 -16 -4 -18 -9 -1 -4 -37 -37 -78 -72 -70 -60 -120
-108 -120 -115 0 -8 37 11 58 29 12 11 22 17 22 12 0 -5 10 0 23 11 84 74 260
165 301 155 4 -1 13 2 20 7 6 5 30 8 53 8 24 -1 43 1 43 4 0 3 18 5 40 5 22 0
40 -2 40 -5 0 -3 25 -5 56 -5 31 0 60 -3 66 -6 18 -11 86 13 119 42 36 32 45
78 23 121 -18 35 -24 37 -54 22z"/>
<path d="M3255 3280 c-4 -6 -12 -7 -18 -4 -7 4 -9 4 -5 -1 4 -4 4 -13 -2 -19
-14 -18 12 -61 38 -62 45 -2 60 54 23 83 -20 15 -28 16 -36 3z"/>
<path d="M1957 3273 c-15 -14 -7 -43 12 -43 27 0 34 15 15 34 -18 18 -18 18
-27 9z"/>
<path d="M4060 3249 c-15 -27 2 -48 23 -31 8 7 17 8 22 4 4 -4 3 3 -4 15 -17
33 -29 36 -41 12z"/>
<path d="M3397 3235 c-4 -9 -1 -18 9 -22 22 -8 30 5 12 23 -14 14 -16 14 -21
-1z"/>
<path d="M1141 3193 c-21 -23 -20 -56 2 -75 24 -22 27 -22 54 -3 16 11 39 65
28 65 -1 0 -18 6 -36 14 -30 12 -36 12 -48 -1z"/>
<path d="M890 3183 c0 -7 7 -13 15 -13 8 0 15 6 15 13 0 8 -7 14 -15 14 -8 0
-15 -6 -15 -14z"/>
<path d="M4130 3150 c-30 -27 -59 -50 -63 -50 -5 0 -5 -6 -1 -12 4 -7 4 -10
-1 -6 -4 4 -14 3 -22 -3 -25 -21 -13 7 17 41 31 35 35 45 22 54 -13 8 -35 -11
-28 -23 4 -6 0 -11 -8 -11 -9 0 -16 -6 -16 -12 -1 -8 -7 -5 -15 6 -8 10 -12
23 -9 27 3 5 -2 6 -11 3 -11 -5 -13 -13 -9 -28 10 -30 6 -69 -9 -78 -6 -4 -8
-8 -3 -8 5 0 4 -6 -2 -13 -18 -22 1 -32 58 -32 58 1 92 -11 125 -43 28 -27 56
-62 50 -62 -3 0 -1 -8 4 -19 13 -23 3 -35 -16 -20 -7 6 -13 8 -13 3 0 -5 -7 2
-16 14 -16 23 -34 21 -34 -2 0 -12 32 -27 45 -23 8 3 39 -46 42 -65 2 -10 -2
-18 -8 -18 -5 0 -8 -4 -5 -9 3 -4 -4 -20 -17 -34 -26 -31 -73 -51 -83 -36 -3
6 -20 9 -38 7 -25 -2 -47 -19 -95 -71 -65 -69 -64 -71 21 -30 27 13 53 21 59
18 5 -4 9 -1 9 6 0 7 3 9 7 6 3 -4 13 -1 21 6 13 10 14 9 8 -2 -6 -9 -1 -8 16
3 14 9 28 13 31 9 4 -3 7 -1 7 5 0 7 5 12 11 12 15 0 69 56 74 77 3 10 8 34
13 53 5 20 6 44 2 55 -4 11 -6 23 -3 27 5 10 -26 66 -52 94 -29 31 -81 64 -99
64 -9 0 -16 5 -16 10 0 6 17 10 39 9 26 -2 44 3 56 14 13 13 27 16 62 11 36
-5 48 -2 62 13 31 34 -1 88 -46 78 -27 -6 -88 -66 -85 -82 2 -8 -11 -11 -36
-10 -48 1 -50 18 -5 42 18 10 33 24 33 32 0 8 5 11 10 8 6 -3 13 1 16 9 14 37
-5 33 -56 -14z"/>
<path d="M1577 3179 c-9 -6 -22 -7 -27 -4 -6 3 -10 0 -10 -9 0 -8 -5 -16 -10
-18 -6 -2 -12 -13 -15 -26 -4 -24 31 -69 53 -66 6 1 19 2 27 3 19 1 20 35 2
50 -10 8 -17 7 -25 -1 -20 -20 -34 4 -17 29 19 27 72 23 97 -7 9 -11 22 -20
30 -20 11 0 11 2 0 9 -8 4 -12 10 -11 12 7 10 -19 40 -39 44 -12 2 -26 6 -30
9 -4 2 -15 0 -25 -5z"/>
<path d="M1731 3167 c-14 -14 -14 -25 1 -41 10 -10 15 -10 29 2 18 16 16 37
-6 45 -7 3 -18 0 -24 -6z"/>
<path d="M3140 3149 c0 -5 -4 -7 -10 -4 -6 3 -7 -1 -4 -9 9 -23 24 -20 24 4 0
11 -2 20 -5 20 -3 0 -5 -5 -5 -11z"/>
<path d="M3885 3144 c-22 -16 -22 -18 -1 -39 20 -20 39 -19 53 4 9 15 9 21 0
29 -25 19 -33 20 -52 6z"/>
<path d="M890 3110 c0 -4 -11 -11 -25 -14 -28 -7 -46 -41 -52 -93 -3 -25 3
-40 25 -63 16 -16 36 -30 45 -30 13 0 10 10 -15 44 l-31 44 20 39 c11 21 25
38 31 38 6 0 14 3 18 7 4 4 19 5 33 1 23 -5 24 -4 13 9 -13 17 -62 30 -62 18z"/>
<path d="M3018 3085 c-3 -13 -1 -22 3 -19 5 3 9 -1 9 -8 0 -8 9 -14 19 -14 11
0 18 3 15 7 -2 4 3 10 11 13 24 9 0 46 -29 46 -17 0 -25 -7 -28 -25z"/>
<path d="M1436 3084 c-3 -8 -2 -12 4 -9 6 3 10 1 10 -6 0 -10 3 -10 11 -2 11
11 5 33 -11 33 -4 0 -11 -7 -14 -16z"/>
<path d="M1840 3092 c-145 -13 -257 -98 -369 -281 -64 -105 -122 -171 -171
-196 -16 -9 -32 -15 -35 -15 -3 0 -6 -1 -7 -1 -2 -1 -25 -3 -53 -4 -81 -3
-149 40 -182 117 -8 18 -8 30 -2 34 6 3 13 -2 15 -13 3 -10 19 -25 36 -32 36
-16 101 -17 106 -1 2 5 9 10 16 10 12 0 38 27 54 57 13 23 9 112 -4 121 -6 4
-16 17 -22 28 -19 36 -75 56 -144 51 -36 -3 -64 -10 -69 -18 -5 -8 -9 -10 -9
-5 0 14 -58 -54 -73 -84 -21 -43 -10 -164 17 -197 89 -110 225 -157 336 -118
50 18 118 61 138 87 7 9 19 24 27 32 8 8 15 19 15 24 0 5 7 15 15 22 8 7 12
16 9 21 -3 5 0 9 5 9 6 0 11 7 11 15 0 8 5 15 11 15 5 0 8 4 5 9 -3 4 3 19 14
31 11 13 20 27 20 31 0 20 121 144 155 160 11 5 34 18 52 28 17 11 51 25 75
32 71 20 76 37 8 31z m-673 -204 c11 -13 23 -31 26 -40 10 -30 -12 -74 -47
-93 -29 -16 -38 -17 -65 -5 -17 7 -31 15 -32 19 0 3 -2 14 -4 24 -4 22 0 22
24 -2 24 -24 54 -18 81 17 22 27 27 47 8 36 -6 -4 -8 -3 -5 3 4 6 0 19 -8 29
-29 38 -11 48 22 12z"/>
<path d="M3500 3090 c0 -5 -13 -7 -30 -5 -16 2 -30 -1 -30 -6 0 -6 -5 -7 -12
-3 -7 4 -8 3 -4 -5 4 -7 13 -10 19 -8 6 2 18 -3 27 -10 8 -7 19 -13 23 -13 12
1 76 -63 79 -80 2 -8 9 -21 16 -28 7 -8 10 -17 8 -21 -7 -10 28 -10 34 0 17
25 120 10 120 -18 0 -7 4 -13 9 -13 5 0 12 -7 15 -16 4 -10 2 -13 -7 -8 -9 5
-9 4 1 -7 14 -15 16 -65 2 -74 -5 -3 -22 8 -38 25 -16 16 -33 26 -38 22 -4 -4
-3 0 4 9 14 18 -1 36 -28 33 -8 -1 -21 -2 -28 -3 -7 0 -10 -5 -7 -11 3 -5 0
-10 -8 -10 -23 0 -51 -74 -44 -117 4 -21 11 -39 17 -41 5 -2 10 -8 10 -14 0
-5 7 -16 15 -24 8 -9 15 -13 15 -9 0 4 7 -1 16 -9 24 -25 99 -25 150 -1 31 15
73 62 89 100 4 11 9 45 10 75 2 85 -47 167 -142 235 -15 11 -32 20 -38 21 -5
1 -23 8 -40 14 -33 14 -55 18 -132 24 -29 3 -53 1 -53 -4z"/>
<path d="M3812 3068 c2 -6 17 -23 33 -37 103 -88 139 -216 91 -324 -25 -55
-57 -97 -73 -97 -6 0 -16 -7 -24 -16 -7 -8 -35 -27 -62 -40 -61 -31 -56 -43 6
-15 25 12 51 21 56 21 6 0 11 5 11 10 0 6 6 10 13 10 34 0 132 144 120 176 -3
8 -1 14 5 14 15 0 0 123 -17 144 -6 7 -8 16 -4 19 3 4 1 7 -5 7 -7 0 -12 6
-12 13 0 6 -13 26 -30 42 -50 51 -112 93 -108 73z"/>
<path d="M920 3035 c-30 -36 -18 -62 26 -51 29 8 30 16 6 46 -17 21 -19 21
-32 5z"/>
<path d="M3380 3040 c-6 -4 -23 -6 -37 -4 -13 1 -22 -1 -18 -4 4 -4 10 -7 13
-8 59 -7 91 -22 132 -63 44 -44 46 -49 45 -102 -1 -69 -29 -116 -87 -149 -24
-13 -45 -23 -48 -21 -2 1 -6 -2 -8 -7 -1 -5 6 -12 18 -15 11 -3 20 -1 20 5 0
5 4 6 10 3 13 -8 72 23 90 49 35 47 58 96 49 102 -5 3 -7 9 -4 14 8 14 -16
100 -28 100 -6 0 -7 3 -4 7 18 18 -120 107 -143 93z"/>
<path d="M4240 3016 c0 -8 7 -16 15 -20 9 -3 15 -18 15 -39 0 -24 5 -34 16
-34 10 0 14 7 11 19 -3 10 -2 20 2 23 13 7 6 46 -10 56 -21 13 -49 11 -49 -5z"/>
<path d="M3277 2988 c-10 -5 -17 -6 -17 -3 0 3 -10 0 -22 -7 -13 -7 -25 -13
-28 -14 -3 -1 -15 -5 -27 -9 -13 -4 -23 -12 -23 -17 0 -5 -4 -7 -9 -4 -5 3
-14 -1 -21 -9 -11 -14 -7 -19 13 -16 4 0 7 -3 7 -8 0 -4 13 -8 30 -7 16 1 30
6 30 13 0 14 55 36 95 37 44 2 102 -32 117 -68 7 -17 11 -35 10 -40 -2 -5 3
-4 11 2 8 7 17 9 20 5 6 -6 9 4 6 23 0 4 5 11 13 15 10 7 10 9 1 9 -7 0 -13 6
-13 13 0 15 -45 59 -77 76 -30 15 -96 21 -116 9z"/>
<path d="M2905 2982 c-6 -4 -10 -13 -9 -19 1 -7 2 -18 3 -24 2 -20 46 -5 46
16 0 18 -12 35 -25 35 -3 0 -10 -4 -15 -8z"/>
<path d="M4048 2953 c-12 -3 -18 -14 -18 -34 0 -17 4 -28 9 -24 5 3 12 1 16
-4 10 -17 33 -1 38 25 5 27 -15 43 -45 37z"/>
<path d="M1324 2932 c-20 -13 -22 -49 -5 -63 26 -21 37 -20 56 1 33 36 -11 89
-51 62z"/>
<path d="M1461 2917 c-8 -12 -14 -24 -13 -27 0 -3 -6 -9 -14 -13 -8 -4 -14
-14 -14 -22 0 -7 -14 -25 -31 -39 -17 -14 -27 -26 -23 -26 8 0 -25 -30 -59
-53 l-22 -16 24 6 c13 3 41 23 62 43 21 20 41 35 44 32 3 -3 5 2 5 12 0 9 6
19 14 22 8 3 17 16 20 29 3 13 12 30 20 38 8 7 11 19 7 25 -4 7 -12 3 -20 -11z"/>
<path d="M3290 2932 c0 -6 -7 -9 -15 -6 -8 4 -15 1 -15 -5 0 -6 -8 -11 -17
-11 -15 0 -16 -2 -3 -10 8 -5 17 -6 20 -2 12 18 77 -4 85 -28 3 -11 10 -20 15
-20 12 0 7 -23 -13 -53 -18 -28 -60 -37 -73 -15 -4 7 -3 8 5 4 17 -11 41 12
41 39 0 29 -24 50 -47 40 -10 -5 -21 -8 -25 -7 -5 1 -28 -51 -28 -64 0 -2 13
-17 30 -34 32 -33 52 -35 102 -10 27 13 35 26 43 73 5 27 -29 87 -50 87 -8 0
-15 5 -15 12 0 6 -3 8 -7 5 -3 -4 -12 -2 -20 4 -9 8 -13 8 -13 1z"/>
<path d="M1700 2921 c0 -7 -4 -10 -9 -7 -11 7 -65 -33 -93 -70 -12 -16 -28
-35 -35 -42 -7 -7 -13 -20 -13 -28 0 -8 -4 -14 -9 -14 -5 0 -21 -37 -35 -82
-35 -108 -37 -112 -74 -105 -38 8 -70 -16 -78 -56 -4 -22 2 -34 26 -57 29 -27
30 -27 65 -12 36 17 63 64 67 122 1 16 5 30 9 30 4 0 6 6 6 13 -2 27 16 97 25
97 5 0 6 5 3 10 -3 6 -1 10 5 10 7 0 10 6 7 14 -3 8 1 17 9 20 8 3 14 12 14
21 0 9 9 25 20 37 11 12 20 28 20 36 0 7 5 12 12 10 14 -5 74 49 65 58 -4 4
-7 2 -7 -5z"/>
<path d="M2823 2911 c-13 -21 0 -41 28 -41 25 0 32 16 19 40 -13 25 -32 26
-47 1z"/>
<path d="M806 2874 c-11 -28 -6 -44 12 -44 28 0 43 20 31 42 -12 22 -35 24
-43 2z"/>
<path d="M3045 2880 c-11 -5 -33 -11 -48 -15 -28 -6 -29 -25 -1 -25 9 0 12 5
8 12 -5 7 -3 8 5 3 7 -4 34 -9 61 -10 26 -1 59 -10 74 -20 21 -14 26 -14 26
-3 0 17 -35 48 -55 48 -7 0 -17 5 -20 10 -5 8 -12 7 -23 -2 -12 -10 -14 -10
-8 0 8 14 8 14 -19 2z"/>
<path d="M1628 2800 c-15 -18 -22 -33 -16 -36 11 -7 28 13 28 34 0 7 4 11 8 8
5 -3 9 1 9 9 0 19 2 20 -29 -15z"/>
<path d="M4080 2810 c-25 -25 -25 -31 -1 -59 24 -27 52 -24 69 8 10 20 10 28
-3 47 -19 29 -39 30 -65 4z"/>
<path d="M4318 2822 c-21 -4 -24 -38 -5 -45 21 -8 34 6 28 28 -4 13 -13 19
-23 17z"/>
<path d="M1590 2736 c-5 -15 -10 -32 -10 -37 0 -5 -4 -9 -9 -9 -4 0 -7 -11 -6
-25 2 -14 -1 -25 -6 -25 -6 0 -8 -4 -5 -9 3 -4 1 -23 -4 -41 -5 -18 -12 -52
-16 -74 -3 -22 -9 -43 -12 -46 -4 -3 -13 -17 -20 -31 -14 -26 -92 -69 -125
-69 -9 0 -19 -4 -22 -10 -3 -5 -13 -10 -21 -10 -28 0 -102 -62 -149 -125 -39
-52 -51 -62 -104 -87 -53 -24 -116 -29 -153 -11 -15 7 -29 13 -30 13 -13 -5
-42 18 -54 42 -8 16 -19 26 -24 23 -22 -13 19 -89 53 -99 10 -2 21 -14 24 -25
3 -12 12 -21 20 -21 8 0 11 -5 8 -10 -4 -6 -17 -3 -34 9 -32 23 -49 15 -67
-29 -31 -76 63 -142 151 -106 18 8 36 12 39 8 3 -3 6 1 6 8 0 7 3 10 7 7 6 -7
83 70 83 84 0 4 6 14 13 21 7 7 28 39 46 72 33 59 41 71 74 107 9 10 14 19 10
19 -22 0 117 81 147 85 17 3 87 39 103 53 21 19 61 92 51 92 -4 0 -2 6 3 13 6
6 9 20 8 30 -2 9 1 17 5 17 5 0 7 10 5 21 -2 12 0 30 6 40 7 14 6 19 -3 19 -9
0 -10 2 -1 8 6 4 13 21 16 38 3 17 10 41 17 54 8 15 9 25 1 33 -7 7 -13 2 -21
-17z"/>
<path d="M1200 2679 c0 -5 -4 -8 -9 -5 -13 8 -21 -18 -11 -34 22 -36 68 -12
52 27 -8 20 -32 29 -32 12z"/>
<path d="M801 2649 c-10 -11 -18 -28 -16 -37 2 -9 4 -20 4 -24 1 -4 13 -14 29
-22 55 -28 104 21 76 77 -18 34 -64 37 -93 6z"/>
<path d="M4260 2649 c0 -7 -3 -10 -6 -6 -12 12 -45 -31 -49 -64 -8 -72 66
-117 127 -76 26 18 33 30 36 65 2 29 0 42 -9 42 -7 0 -9 3 -6 7 10 9 -30 34
-64 40 -19 3 -29 0 -29 -8z m4 -31 c-6 -10 -4 -10 7 0 19 17 27 15 54 -14 23
-25 23 -28 9 -55 -8 -16 -21 -30 -29 -30 -8 -1 -21 -2 -27 -3 -35 -4 -56 55
-33 91 16 24 32 33 19 11z"/>
<path d="M4270 2565 c0 -8 7 -15 15 -15 9 0 12 6 9 15 -4 8 -10 15 -15 15 -5
0 -9 -7 -9 -15z"/>
<path d="M3460 2611 c-7 -15 -6 -23 6 -35 23 -23 53 -5 47 29 -6 30 -38 34
-53 6z"/>
<path d="M4040 2578 c-47 -13 -74 -43 -113 -130 -35 -76 -91 -137 -127 -139
-28 -2 -33 -3 -47 -12 -7 -5 -17 -6 -23 -2 -5 3 -28 7 -52 10 -39 3 -41 2 -24
-10 10 -8 22 -12 27 -10 4 3 9 1 11 -5 7 -22 140 -18 208 5 3 1 20 6 38 10 17
4 32 12 32 18 0 6 3 7 6 4 4 -3 16 -1 28 5 11 7 23 13 26 13 3 0 19 9 35 20
96 61 125 132 76 189 -28 32 -63 44 -101 34z"/>
<path d="M3575 2558 c-40 -23 -48 -65 -15 -86 16 -10 20 -10 20 0 0 7 -4 19
-9 27 -12 19 8 38 35 33 12 -2 25 -14 29 -25 8 -26 8 -24 -1 -62 l-7 -30 22
24 c22 26 24 32 21 71 -2 27 -35 60 -59 60 -9 0 -25 -6 -36 -12z"/>
<path d="M976 2509 c-84 -20 -150 -83 -149 -141 1 -33 3 -37 23 -56 23 -21 70
-18 70 4 0 8 5 14 10 14 6 0 10 7 10 16 0 24 31 85 40 79 5 -3 11 -1 15 5 4 6
11 8 16 5 5 -4 9 -2 9 2 0 5 11 9 25 9 14 0 25 -4 25 -9 0 -4 4 -6 9 -2 14 8
71 -51 71 -73 0 -26 42 -47 68 -33 20 11 28 56 11 67 -5 3 -7 9 -4 13 7 13
-76 93 -103 98 -43 9 -113 10 -146 2z"/>
<path d="M3798 2482 c-27 -16 -32 -43 -13 -72 11 -17 61 -47 50 -31 -3 6 -1
11 5 11 19 0 35 23 36 51 1 18 -7 31 -25 42 -24 14 -29 14 -53 -1z"/>
<path d="M1272 2475 c-29 -21 -28 -39 5 -54 21 -10 28 -9 34 1 12 18 11 31 -4
51 -11 16 -14 16 -35 2z"/>
<path d="M4191 2451 c-18 -11 -7 -40 14 -37 8 1 15 5 15 9 0 4 0 14 0 22 0 17
-9 19 -29 6z"/>
<path d="M4301 2437 c-17 -21 -3 -49 23 -45 15 2 21 10 21 28 0 28 -26 38 -44
17z"/>
<path d="M3696 2407 c-21 -16 -14 -57 10 -57 28 0 42 23 31 47 -12 27 -17 28
-41 10z"/>
<path d="M986 2365 c-21 -32 8 -77 43 -68 24 6 23 39 -2 50 -14 6 -17 12 -9
17 7 4 12 3 12 -3 0 -6 6 -8 14 -5 12 5 25 -13 32 -43 4 -23 -46 -53 -75 -46
-14 3 -29 10 -32 16 -4 6 -9 5 -13 -1 -3 -5 4 -20 17 -33 25 -27 73 -31 88 -8
5 8 9 10 9 4 0 -5 7 1 16 13 18 27 25 70 12 78 -4 3 -6 9 -3 14 8 13 -42 40
-70 38 -14 -1 -32 -12 -39 -23z"/>
<path d="M4149 2350 c-31 -9 -79 -39 -79 -51 0 -9 22 -6 60 9 30 11 61 7 103
-14 41 -22 55 -37 70 -76 18 -49 11 -106 -19 -135 -17 -17 -40 -18 -27 0 15
19 22 56 12 63 -5 3 -9 12 -9 20 0 15 -26 43 -56 60 -17 9 -51 11 -105 6 -16
-2 -57 -69 -53 -89 1 -7 2 -24 3 -38 3 -62 103 -124 181 -111 39 6 116 57 113
75 -2 6 1 11 6 11 9 0 14 17 25 76 8 38 -15 102 -51 144 -19 22 -39 38 -43 35
-5 -3 -12 0 -17 7 -9 15 -74 19 -114 8z"/>
<path d="M1504 2312 c-9 -13 -9 -22 0 -33 12 -16 21 -17 49 -4 14 6 15 10 6
21 -6 8 -8 14 -3 14 12 0 -18 20 -31 20 -6 0 -15 -8 -21 -18z"/>
<path d="M1413 2264 c-3 -8 0 -21 7 -29 15 -18 52 -2 44 19 -8 20 -44 27 -51
10z"/>
<path d="M3925 2251 c-11 -5 -26 -20 -34 -34 -7 -14 -19 -23 -25 -21 -6 2 -17
-5 -24 -16 -8 -13 -8 -20 -1 -20 5 0 8 -3 6 -7 -7 -14 27 -38 58 -41 68 -6
119 93 60 120 -13 6 -22 15 -19 19 6 10 5 10 -21 0z"/>
<path d="M880 2237 c0 -21 33 -55 66 -67 41 -16 102 -21 109 -9 4 5 11 7 16 4
5 -4 9 -1 9 4 0 6 4 10 9 9 11 -4 61 49 61 64 0 9 -25 -5 -40 -23 -14 -17 -50
-27 -98 -26 -44 0 -58 4 -83 28 -34 32 -49 36 -49 16z"/>
<path d="M3647 2229 c4 -13 9 -17 15 -11 11 11 3 32 -12 32 -4 0 -6 -9 -3 -21z"/>
<path d="M1310 2228 c0 -4 -3 -7 -7 -6 -16 3 -43 -15 -43 -28 0 -8 -4 -14 -9
-14 -10 0 -25 -50 -25 -85 -1 -32 28 -29 41 5 8 21 24 36 54 49 24 11 46 18
50 15 16 -10 21 39 5 54 -17 17 -66 25 -66 10z"/>
<path d="M1540 2231 c-23 -9 -24 -41 -2 -41 27 0 46 24 30 37 -7 6 -20 8 -28
4z"/>
<path d="M3773 2177 c-28 -12 -30 -43 -3 -52 25 -8 40 1 40 23 0 30 -13 40
-37 29z"/>
<path d="M3700 2161 c-30 -12 -13 -91 19 -91 16 0 13 29 -5 47 -11 12 -12 18
-4 23 17 11 8 29 -10 21z"/>
<path d="M1430 2140 c0 -3 -15 -12 -32 -19 -18 -8 -39 -20 -45 -27 -23 -23
-61 -106 -56 -124 3 -10 0 -21 -5 -24 -6 -3 -8 -16 -5 -29 23 -111 45 -161 95
-213 56 -59 208 -116 208 -78 0 8 -4 13 -9 9 -5 -3 -16 2 -24 10 -9 8 -19 15
-24 15 -16 0 -74 84 -73 105 0 3 0 6 -1 8 0 1 -2 18 -2 37 -2 28 -7 35 -27 40
-27 7 -38 -1 -58 -40 -7 -14 -10 -17 -8 -7 3 9 2 17 -2 17 -10 0 -14 31 -15
101 0 130 118 224 196 156 32 -27 36 -76 9 -100 -17 -16 -20 -15 -41 8 -19 23
-23 24 -36 11 -11 -11 -13 -21 -5 -40 5 -14 13 -27 17 -27 53 -9 61 -6 101 33
30 29 27 148 -4 148 -8 0 -14 6 -14 14 0 8 -13 17 -29 21 -32 7 -111 4 -111
-5z"/>
<path d="M3823 2057 c-3 -5 -14 -7 -24 -4 -11 3 -19 1 -19 -3 0 -5 -14 -12
-32 -15 -17 -4 -36 -11 -42 -16 -6 -5 -22 -18 -35 -29 -31 -26 -24 -34 13 -15
15 8 44 17 64 20 21 3 46 7 57 8 50 7 154 -48 176 -93 42 -87 21 -197 -43
-228 -17 -8 -28 -21 -28 -34 0 -18 5 -19 44 -16 66 7 137 63 173 138 15 32 19
78 10 121 -8 40 -73 114 -127 145 -19 10 -37 21 -40 24 -9 9 -141 6 -147 -3z"/>
<path d="M1436 2033 c-14 -13 -26 -27 -27 -31 0 -4 -2 -17 -5 -30 -2 -14 0
-21 6 -17 5 3 7 0 4 -9 -6 -16 24 -68 36 -61 4 3 11 -2 14 -11 4 -9 9 -14 12
-11 3 3 17 2 30 -3 19 -7 24 -6 24 5 0 14 -12 19 -32 16 -5 0 -8 4 -8 9 0 5
-4 10 -10 10 -5 0 -19 9 -30 20 -11 11 -18 20 -15 20 3 0 1 8 -4 18 -7 13 -3
27 15 55 13 20 27 37 30 36 3 0 8 1 10 4 2 2 -2 4 -10 4 -8 0 -26 -11 -40 -24z"/>
<path d="M1149 2034 c0 -5 -2 -17 -4 -26 -4 -20 10 -24 20 -8 4 6 15 0 27 -15
24 -31 44 -32 59 -4 9 17 8 25 -5 37 -14 14 -20 15 -37 4 -18 -11 -24 -11 -40
4 -10 9 -19 13 -20 8z"/>
<path d="M4320 1950 c-12 -8 -12 -10 3 -16 21 -8 35 2 21 16 -5 5 -15 6 -24 0z"/>
<path d="M3791 1929 c-47 -10 -80 -29 -87 -51 -3 -10 -10 -15 -17 -12 -7 4 -9
3 -4 -1 4 -5 -1 -17 -10 -28 -10 -10 -17 -21 -15 -23 1 -2 2 -5 1 -6 -1 -2 -3
-16 -5 -33 -2 -16 -5 -35 -6 -40 -1 -6 -7 -16 -14 -23 -11 -10 -15 -8 -24 8
-6 10 -16 17 -24 14 -17 -7 -15 -42 4 -54 38 -24 82 3 85 54 2 19 6 39 9 45 4
6 3 11 -3 11 -6 0 2 20 17 44 15 24 30 42 35 39 4 -2 10 2 13 10 6 17 96 15
102 -3 2 -5 10 -10 18 -10 9 0 13 -4 9 -9 -3 -5 -1 -12 5 -16 16 -10 7 -66
-12 -76 -23 -12 -45 -2 -29 14 27 27 -12 77 -55 69 -59 -11 -72 -86 -24 -134
27 -27 36 -30 74 -26 64 8 113 69 102 128 -2 14 -5 30 -5 35 -1 16 -52 70 -62
67 -6 -1 -18 2 -27 6 -9 5 -32 5 -51 1z"/>
<path d="M4269 1928 c0 -7 -2 -22 -4 -32 -4 -22 7 -46 31 -70 23 -24 34 -19
21 9 -7 14 -15 25 -19 25 -5 0 -8 18 -8 40 0 22 -4 40 -10 40 -5 0 -10 -6 -11
-12z"/>
<path d="M1109 1919 c-31 -12 -47 -42 -43 -86 2 -31 37 -77 48 -65 3 3 6 1 6
-4 0 -5 9 -10 20 -11 32 -3 122 -47 152 -76 15 -13 29 -22 32 -19 3 3 6 0 6
-6 0 -14 98 -72 123 -72 9 0 17 -4 17 -8 0 -4 23 -8 51 -8 28 1 53 -2 56 -7 2
-4 13 -3 23 3 13 7 21 7 26 -1 4 -8 9 -7 15 2 5 8 9 10 9 4 0 -12 150 -16 150
-4 0 12 -40 22 -96 24 -28 1 -55 5 -61 8 -6 4 -14 1 -16 -5 -3 -7 -6 -8 -6 -3
-1 6 -27 10 -59 9 -31 0 -64 3 -72 7 -8 3 -32 14 -53 23 -43 18 -127 92 -127
112 0 8 -4 14 -10 14 -5 0 -10 6 -10 13 0 27 -59 134 -82 148 -27 18 -63 21
-99 8z"/>
<path d="M4175 1913 c6 -4 11 -16 12 -25 0 -10 1 -31 2 -47 1 -32 52 -94 59
-72 2 7 -5 26 -17 42 -11 15 -21 40 -21 54 0 14 -4 25 -10 25 -5 0 -9 5 -7 11
1 6 -5 14 -13 16 -9 3 -11 1 -5 -4z"/>
<path d="M889 1852 c0 -4 -2 -15 -4 -24 -2 -10 1 -18 5 -18 5 0 16 -3 25 -6
13 -6 16 -1 13 21 -2 18 -10 29 -20 31 -10 1 -18 -1 -19 -4z"/>
<path d="M1580 1827 c0 -4 -4 -6 -9 -2 -11 6 -33 -28 -38 -57 -5 -31 38 -65
80 -64 20 1 37 -2 37 -8 0 -5 3 -6 6 -3 4 4 20 -3 35 -14 32 -23 37 -13 14 31
-9 17 -13 30 -10 30 11 0 -29 65 -48 79 -23 16 -67 21 -67 8z"/>
<path d="M946 1775 c-9 -9 -17 -19 -17 -23 -7 -37 -4 -60 9 -74 8 -10 11 -18
6 -19 -5 0 7 -6 26 -12 33 -12 90 -3 88 12 -1 4 2 14 7 24 11 26 -3 84 -23 93
-36 16 -79 15 -96 -1z"/>
<path d="M4149 1703 c-8 -2 -23 -17 -33 -34 -18 -31 -23 -50 -30 -124 -3 -22
-5 -42 -6 -45 -1 -3 -2 -8 -1 -12 0 -5 -3 -8 -9 -8 -5 0 -10 -7 -10 -15 0 -22
-57 -72 -97 -86 -38 -12 -132 -19 -148 -10 -5 3 -16 6 -25 7 -8 2 -33 8 -55
14 -63 18 -89 20 -97 7 -11 -16 -10 -29 1 -23 5 3 12 -1 15 -10 4 -9 9 -14 12
-11 3 3 27 -1 52 -9 65 -21 92 -26 132 -28 38 -1 66 -27 56 -51 -3 -8 -1 -15
4 -15 5 0 5 -12 0 -29 -14 -51 -30 -71 -54 -71 -37 0 -41 -27 -5 -35 25 -6 36
-2 59 20 25 24 27 32 25 88 -2 34 -8 63 -14 65 -6 2 -8 9 -5 14 4 7 2 8 -4 4
-7 -4 -12 -3 -12 2 0 4 24 16 53 25 28 9 66 29 84 44 30 27 88 103 77 103 -2
0 3 15 13 33 9 17 16 35 15 38 0 4 19 14 44 24 62 23 76 59 46 113 -12 21 -41
27 -83 15z"/>
<path d="M1129 1649 c-7 -4 -16 -6 -20 -4 -3 3 -21 -13 -40 -33 -30 -33 -34
-45 -34 -93 0 -63 22 -107 69 -135 33 -20 116 -28 116 -11 0 6 3 7 6 4 9 -9
62 30 76 56 15 29 19 106 6 132 -15 30 -77 85 -96 86 -9 1 -29 2 -44 3 -15 2
-33 -1 -39 -5z"/>
<path d="M3562 1635 c-13 -16 -12 -50 2 -75 5 -8 6 -12 1 -8 -4 4 -16 3 -26
-2 -12 -7 -20 -6 -24 1 -8 12 -45 -17 -45 -36 0 -28 42 -24 73 7 18 17 39 35
48 42 8 6 20 20 26 30 9 16 7 23 -12 38 -27 21 -26 21 -43 3z"/>
<path d="M3783 1642 c-20 -3 -44 -26 -98 -94 -47 -59 -156 -109 -264 -122 -35
-4 -53 -15 -45 -27 3 -6 11 -6 17 -1 7 5 28 8 47 6 19 -1 64 4 100 11 35 8 68
11 72 9 4 -3 8 -1 8 4 0 5 6 9 13 10 6 1 28 3 47 5 19 2 41 -1 49 -7 10 -7 13
-7 8 0 -4 7 10 11 39 11 91 2 142 50 123 117 -10 36 -55 80 -75 72 -7 -3 -14
-2 -16 2 -2 4 -13 6 -25 4z"/>
<path d="M3990 1600 c-8 -6 -10 -10 -5 -10 6 0 4 -4 -4 -9 -10 -7 -11 -13 -2
-30 18 -32 68 -25 65 9 -3 38 -4 43 -11 37 -3 -4 -11 -3 -17 3 -7 5 -17 5 -26
0z"/>
<path d="M1401 1531 c-21 -14 -5 -41 23 -39 19 2 22 6 16 22 -8 24 -20 29 -39
17z"/>
<path d="M1873 1513 c-9 -34 -6 -61 10 -91 12 -25 67 -60 67 -43 0 6 6 8 14 5
19 -7 15 18 -6 39 -11 11 -18 13 -26 5 -17 -17 -29 -2 -30 39 -1 21 -6 39 -11
41 -6 2 -7 10 -4 18 3 8 2 14 -1 14 -3 0 -9 -12 -13 -27z"/>
<path d="M4166 1524 c-5 -14 -4 -15 9 -4 17 14 19 20 6 20 -5 0 -12 -7 -15
-16z"/>
<path d="M1621 1509 c-42 -9 -80 -28 -106 -54 -20 -19 -59 -75 -60 -85 -1 -3
-7 -22 -14 -43 -12 -35 -11 -134 2 -177 27 -93 132 -200 196 -200 11 0 21 -3
21 -7 0 -5 16 -9 35 -10 23 -2 35 1 35 10 0 7 -15 13 -37 13 -21 1 -39 7 -41
13 -2 6 -8 8 -13 5 -16 -10 -129 83 -129 107 0 5 -5 9 -11 9 -6 0 -9 7 -5 15
3 8 -2 19 -12 24 -9 6 -14 11 -11 11 3 0 0 23 -7 51 -9 34 -10 57 -4 68 8 14
9 14 10 0 0 -25 36 -92 62 -116 83 -78 223 -66 297 24 29 35 57 116 46 134 -4
5 0 9 7 9 8 0 9 3 3 8 -10 7 -16 23 -18 54 -1 10 -5 18 -10 18 -4 0 -6 4 -3 9
3 5 -1 12 -10 15 -8 3 -13 10 -10 15 3 5 -1 14 -9 21 -8 7 -15 9 -15 5 0 -5
-8 1 -17 12 -33 36 -111 55 -172 42z m117 -49 c2 -6 10 -10 18 -10 8 0 14 -4
14 -10 0 -5 8 -10 17 -10 9 0 13 -3 10 -6 -4 -4 3 -15 15 -25 11 -11 18 -19
14 -19 -4 0 -4 -6 1 -12 17 -28 18 -118 1 -118 -5 0 -6 -4 -3 -10 3 -5 -5 -22
-19 -37 -15 -15 -26 -31 -26 -35 0 -5 -6 -8 -14 -8 -7 0 -18 -6 -24 -13 -6 -7
-25 -14 -43 -15 -18 -2 -35 -4 -36 -6 -2 -2 -25 4 -51 14 -73 28 -115 89 -113
165 2 82 37 134 106 158 43 15 128 13 133 -3z"/>
<path d="M1630 1398 c0 -5 -4 -7 -9 -3 -15 8 -58 -40 -65 -72 -7 -35 -4 -50
17 -90 16 -30 27 -38 50 -34 4 0 7 -4 7 -9 0 -16 59 -12 89 6 48 28 69 81 52
127 -12 30 -61 78 -73 71 -4 -3 -8 -1 -8 4 0 4 -13 8 -30 8 -16 0 -30 -4 -30
-8z"/>
<path d="M1476 1485 c-43 -29 -85 -75 -86 -92 0 -7 -4 -13 -9 -13 -8 0 -16
-28 -28 -90 -12 -69 9 -156 55 -222 39 -56 99 -118 106 -110 3 3 6 0 6 -7 0
-8 6 -11 16 -7 8 3 13 2 10 -3 -3 -4 14 -16 37 -26 140 -57 163 -87 121 -159
-7 -11 -22 -18 -38 -18 -31 -1 -45 10 -30 20 32 21 21 72 -16 72 -23 0 -39
-21 -44 -57 -2 -24 3 -34 30 -52 69 -48 156 5 148 90 -2 22 -64 103 -64 84 0
-4 -15 3 -34 14 -18 12 -41 21 -51 21 -28 0 -134 89 -135 113 0 5 -10 18 -22
29 -13 11 -18 17 -11 14 7 -4 5 6 -5 26 -21 42 -22 50 -23 123 -1 82 8 122 38
175 28 49 68 91 77 82 3 -3 6 0 6 6 0 18 -13 15 -54 -13z"/>
<path d="M3950 1479 c-9 -17 -8 -23 7 -35 25 -18 29 -18 48 8 14 21 14 24 -2
35 -24 18 -41 16 -53 -8z"/>
<path d="M3340 1390 c0 -8 16 -33 35 -54 19 -22 32 -43 29 -47 -2 -4 1 -9 6
-11 6 -2 12 -16 14 -31 1 -15 5 -30 8 -33 3 -3 4 -19 2 -35 -2 -16 -6 -42 -8
-58 -2 -15 -9 -39 -16 -52 -18 -33 -50 -74 -50 -63 0 5 -4 3 -9 -5 -5 -7 -22
-14 -38 -15 -16 -2 -35 -6 -42 -10 -6 -4 -19 -2 -27 5 -8 6 -17 9 -20 6 -11
-11 -93 75 -108 114 -9 21 -16 41 -16 44 0 3 -11 29 -24 59 -13 30 -21 58 -18
62 4 4 0 5 -8 2 -19 -6 -16 -47 7 -108 3 -8 8 -23 9 -33 2 -10 11 -29 20 -42
9 -14 12 -25 8 -25 -5 -1 2 -7 16 -15 14 -8 22 -14 18 -15 -11 0 46 -56 73
-71 36 -19 126 -21 133 -3 3 9 10 12 16 9 23 -14 110 100 104 138 -1 9 1 17 5
17 4 0 7 21 6 48 -3 84 -27 141 -84 197 -24 23 -41 33 -41 25z"/>
<path d="M3188 1334 c-54 -29 -46 -102 14 -127 42 -17 62 -12 92 24 26 31 26
72 0 62 -8 -3 -13 -8 -10 -11 9 -8 -14 -43 -25 -37 -5 4 -9 2 -9 -4 0 -11 -39
-6 -53 8 -15 15 -3 55 21 67 18 9 20 13 10 22 -9 7 -21 6 -40 -4z"/>
<path d="M3476 1335 c-3 -8 3 -17 15 -20 10 -4 19 -11 19 -16 0 -5 6 -9 13 -9
6 0 28 -14 47 -30 40 -34 70 -38 94 -11 28 31 28 59 0 78 -34 22 -180 28 -188
8z"/>
<path d="M1929 1319 c-9 -17 -8 -23 2 -30 34 -21 60 8 33 36 -20 19 -21 19
-35 -6z"/>
<path d="M1213 1310 c-43 -18 -41 -76 4 -101 30 -17 31 -17 56 9 32 34 27 79
-10 93 -13 5 -25 9 -26 8 -1 0 -12 -4 -24 -9z"/>
<path d="M4004 1302 c-6 -4 -14 -17 -18 -29 -6 -17 -3 -23 8 -23 9 0 16 -5 16
-10 0 -7 6 -7 20 0 23 13 26 36 6 56 -17 16 -17 16 -32 6z"/>
<path d="M3715 1270 c3 -5 11 -10 16 -10 6 0 7 5 4 10 -3 6 -11 10 -16 10 -6
0 -7 -4 -4 -10z"/>
<path d="M3369 1258 c-7 -30 -5 -36 10 -34 19 3 22 27 4 34 -7 2 -13 2 -14 0z"/>
<path d="M3516 1214 c-9 -23 -8 -24 12 -24 24 0 32 8 25 26 -7 19 -29 18 -37
-2z"/>
<path d="M3793 1217 c5 -17 37 -21 37 -5 0 8 -9 14 -21 15 -12 1 -19 -3 -16
-10z"/>
<path d="M3648 1196 c-28 -21 -22 -53 11 -64 16 -6 32 -8 35 -5 3 3 8 -2 12
-11 3 -9 10 -13 15 -10 5 3 9 -2 9 -10 0 -19 16 -21 26 -4 5 7 3 8 -6 3 -9 -5
-11 -4 -6 3 13 21 25 13 23 -15 -1 -16 -11 -36 -21 -45 -22 -21 -19 -20 -48
-9 -34 13 -52 -9 -31 -38 8 -13 21 -20 29 -17 8 3 14 0 14 -7 0 -7 3 -8 8 -2
4 6 16 15 27 21 33 18 50 77 36 124 -25 82 -86 122 -133 86z"/>
<path d="M3314 1157 c-4 -12 1 -24 13 -32 24 -19 26 -18 44 4 11 12 14 23 7
34 -12 22 -56 18 -64 -6z"/>
<path d="M3197 1150 c-15 -9 -24 -20 -20 -23 3 -4 1 -7 -6 -7 -8 0 -7 -9 6
-30 20 -34 53 -40 81 -12 17 17 19 62 2 62 -5 0 -15 6 -22 13 -11 11 -18 11
-41 -3z"/>
<path d="M4001 1161 c-10 -6 -10 -10 -1 -16 13 -8 24 -1 19 14 -3 6 -10 7 -18
2z"/>
<path d="M3501 1133 c-18 -20 -4 -45 27 -49 30 -5 48 29 26 50 -19 20 -35 20
-53 -1z"/>
<path d="M1266 1132 c-4 -4 -12 -7 -18 -7 -20 0 -17 -35 4 -46 25 -13 48 4 41
32 -6 23 -17 31 -27 21z"/>
<path d="M3024 1057 c5 -53 73 -166 90 -150 3 4 6 2 6 -4 0 -5 6 -10 13 -11
42 -5 55 -4 86 3 30 7 31 9 15 19 -11 5 -26 11 -34 13 -8 1 -16 7 -18 13 -2 5
-7 8 -12 5 -4 -2 -20 7 -36 20 -16 14 -31 25 -34 25 -3 0 -19 22 -35 50 -17
27 -33 50 -37 50 -4 0 -6 -15 -4 -33z"/>
<path d="M3890 1060 c-19 -35 14 -56 44 -28 11 11 10 16 -7 30 -25 22 -24 22
-37 -2z"/>
<path d="M1750 1063 c-23 -9 -29 -25 -17 -45 20 -32 67 -16 67 23 0 13 -23 33
-33 28 -1 0 -9 -3 -17 -6z"/>
<path d="M1597 1054 c-13 -13 -7 -24 14 -24 11 0 19 5 17 12 -5 14 -22 21 -31
12z"/>
<path d="M3276 1045 c-4 -10 1 -15 14 -15 11 0 20 7 20 15 0 8 -6 15 -14 15
-8 0 -16 -7 -20 -15z"/>
<path d="M3500 1031 c-14 -9 -26 -23 -28 -31 -4 -21 -61 -72 -72 -65 -6 4 -10
1 -10 -5 0 -6 -4 -9 -9 -6 -4 3 -17 -1 -27 -9 -19 -14 -19 -14 1 -16 19 -1 46
-3 125 -12 37 -5 90 9 90 23 0 5 7 16 16 24 9 9 11 16 4 16 -6 0 -8 5 -5 11 9
14 -15 70 -26 63 -5 -3 -9 -1 -9 4 0 18 -25 19 -50 3z"/>
<path d="M1373 1033 c-16 -6 -5 -33 13 -33 8 0 14 3 14 8 0 15 -15 29 -27 25z"/>
<path d="M1423 963 c-7 -3 -13 -15 -13 -28 0 -30 20 -45 47 -34 36 13 2 74
-34 62z"/>
<path d="M1507 883 c-4 -3 -7 -12 -7 -20 0 -15 36 -18 45 -3 3 6 1 10 -5 10
-6 0 -8 5 -5 10 7 11 -18 14 -28 3z"/>
<path d="M1781 871 c-11 -7 -11 -10 0 -17 15 -9 39 -15 39 -9 0 10 -13 35 -19
35 -3 0 -12 -4 -20 -9z"/>
<path d="M3060 864 c0 -11 -7 -29 -15 -40 -19 -25 -19 -34 0 -34 8 0 15 7 15
15 0 8 4 15 9 15 5 0 7 12 5 27 -6 34 -14 43 -14 17z"/>
<path d="M3114 821 c1 -17 5 -30 11 -29 14 4 15 25 1 43 -11 15 -12 13 -12
-14z"/>
<path d="M3407 843 c-8 -13 11 -53 25 -53 21 0 34 14 33 35 0 14 -8 21 -27 23
-14 2 -28 0 -31 -5z"/>
<path d="M3224 816 c-38 -32 -40 -77 -6 -114 32 -34 66 -36 103 -7 34 28 37
75 7 108 -34 37 -71 42 -104 13z"/>
<path d="M3086 766 c-14 -22 -14 -24 2 -21 9 2 20 4 25 4 10 1 9 29 -2 35 -5
3 -16 -5 -25 -18z"/>
<path d="M3004 689 c-24 -26 -24 -25 3 -44 42 -29 83 20 43 52 -20 17 -24 16
-46 -8z"/>
<path d="M3138 693 c-15 -4 -22 -42 -8 -44 3 0 13 -2 22 -4 9 -2 22 3 29 11 8
10 8 14 0 14 -6 0 -11 7 -11 15 0 15 -3 16 -32 8z"/>
<path d="M2016 312 c-4 -3 -36 -5 -71 -5 -43 1 -65 -3 -65 -11 0 -7 -3 -7 -8
-1 -7 11 -92 15 -92 5 0 -8 -75 -4 -89 4 -6 4 -11 4 -10 -1 3 -20 -2 -25 -16
-13 -12 10 -15 10 -15 -3 0 -10 7 -15 20 -12 11 2 22 -1 26 -6 3 -6 12 -3 21
8 8 10 12 12 8 6 -4 -9 5 -13 32 -13 22 0 45 -6 52 -12 11 -11 13 -10 7 0 -5
9 2 11 28 10 20 -2 36 -7 36 -12 0 -5 6 -3 13 3 8 6 17 8 20 5 12 -12 62 -13
76 -1 10 8 13 8 8 1 -4 -7 3 -14 18 -17 14 -2 28 0 32 6 3 6 1 7 -5 3 -7 -4
-12 -2 -12 3 0 14 17 14 25 0 4 -6 13 -8 21 -5 8 3 14 0 14 -7 0 -9 3 -8 9 1
4 8 12 14 16 14 4 0 12 -6 16 -14 6 -9 9 -10 9 -1 0 7 7 10 15 7 9 -4 15 0 15
7 0 9 3 10 8 3 8 -13 52 -25 52 -15 0 4 19 5 43 2 23 -3 78 -6 122 -6 44 0 83
-4 87 -10 5 -7 8 -6 8 0 0 12 99 13 117 2 6 -4 14 -4 17 1 2 4 69 8 148 7 115
0 146 3 156 15 8 8 11 10 8 4 -3 -7 3 -14 14 -17 10 -3 21 0 24 7 3 7 8 6 15
-4 10 -14 16 -7 11 15 -1 6 4 4 11 -3 15 -14 53 -16 44 -2 -3 5 -1 10 4 10 6
0 11 -8 11 -17 0 -10 4 -14 8 -8 4 6 28 10 55 9 26 0 47 5 47 10 0 7 3 8 8 1
7 -11 64 -16 58 -6 -3 4 28 6 67 6 65 0 72 2 73 20 1 15 -5 20 -23 20 -16 0
-22 -4 -18 -14 4 -11 3 -12 -10 -1 -8 7 -22 10 -30 6 -8 -3 -15 -2 -15 3 0 9
-31 8 -48 -3 -7 -4 -12 -2 -12 6 0 9 -3 9 -10 -2 -5 -8 -10 -10 -10 -4 0 7
-31 11 -91 10 -50 -1 -93 3 -96 8 -3 4 -9 3 -13 -4 -5 -8 -13 -9 -21 -4 -20
12 -49 12 -49 0 0 -7 -3 -7 -8 -1 -9 13 -42 16 -42 4 0 -5 -7 -6 -16 -2 -28
10 -594 9 -598 -2 -3 -5 -5 -5 -5 2 -1 8 -10 9 -31 3 -19 -5 -28 -5 -25 1 4 5
1 9 -4 9 -6 0 -11 -5 -11 -11 0 -5 -5 -7 -12 -3 -17 11 -58 11 -58 1 0 -5 -7
-4 -15 3 -12 10 -15 9 -16 -6 0 -18 -1 -18 -9 1 -5 11 -9 15 -9 8 -1 -8 -10
-9 -30 -3 -16 4 -32 5 -35 2z"/>
<path d="M1616 278 c3 -5 10 -6 15 -3 13 9 11 12 -6 12 -8 0 -12 -4 -9 -9z"/>
</g>
</svg>
